# xmcd
#
# Track frame offsets:
#	150
#	10975
#	21382
#	40937
#	51262
#	64580
#	78617
#	89257
#	101875
#	119620
#	129847
#	142322
#	154725
#	166262
#	179760
#	199407
#	216052
#	231360
#
# Disc length: 3223 seconds
#
# Revision: 1
# Processed by: cddbd v1.5.1PL2 Copyright (c) Steve Scherf et al.
# Submitted via: audiograbber 1.83.01
#
DISCID=0c0c9512
DTITLE=Various Artist - A very special country collection CD3
DYEAR=1996
DGENRE=Country
TTITLE0=Billie Jo Spears - I'm so lonsome I could cry
TTITLE1=Patsy Cline - I love you, honey
TTITLE2=Tanya Tucker - Delta dawn
TTITLE3=Frankie Laine - I blieve
TTITLE4=Kathy Matea - Ball and chain
TTITLE5=Lee Greenwood - I'll never stop lovin' you
TTITLE6=Stella Parton - Standard lie number one
TTITLE7=Faron Young - It's four in the morning
TTITLE8=The Nitty Gritty Dirt Band - Partners, brothers, friends
TTITLE9=Tammy Wynette - Womanhood
TTITLE10=Billie Jo Spears - He's on the run again
TTITLE11=Bobby Bare - Tequila Sheila
TTITLE12=Jeannie C Riley - Total woman
TTITLE13=Merle Haggard - Working' man blues
TTITLE14=The Bellamy Brothers - If I said you had a beautiful body
TTITLE15=Lynn Andreson - Blue bayou
TTITLE16=Merle Haggard - Okie from Muskogee
TTITLE17=Patsy Cline - Three cigarettes in an ashtray
EXTD=
EXTT0=
EXTT1=
EXTT2=
EXTT3=
EXTT4=
EXTT5=
EXTT6=
EXTT7=
EXTT8=
EXTT9=
EXTT10=
EXTT11=
EXTT12=
EXTT13=
EXTT14=
EXTT15=
EXTT16=
EXTT17=
PLAYORDER=
